# xmcd
#
# Track frame offsets: 
#        150
#        17185
#        33330
#        51547
#        67125
#        88010
#        104475
#        120655
#        125242
#        146125
#        167707
#        182680
#        202780
#
# Disc length: 2865 seconds
#
# Revision: 5
# Processed by: cddbd v1.5.2PL0 Copyright (c) Steve Scherf et al.
# Submitted via: ExactAudioCopy v0.99pb5
#
DISCID=c40b2f0d
DTITLE=The Boneshakers - Book of Spells
DYEAR=1997
DGENRE=Blues
TTITLE0=Cold Sweat
TTITLE1=Break Down The Walls
TTITLE2=I Blew Up The United States
TTITLE3=Part Time Man
TTITLE4=I'm Living All Of My Days For You
TTITLE5=Welcome To My Life
TTITLE6=Why Don't You Want Me
TTITLE7=Queenie's Groove
TTITLE8=Let's Straighten It Out
TTITLE9=The One You Run To
TTITLE10=Don't Tear My Heart Apart
TTITLE11=Long Way Down
TTITLE12=Fudge Brownie
EXTD=YEAR: 1997 ID3G: 0
EXTT0=
EXTT1=
EXTT2=
EXTT3=
EXTT4=
EXTT5=
EXTT6=
EXTT7=
EXTT8=
EXTT9=
EXTT10=
EXTT11=
EXTT12=
PLAYORDER=
